<?xml version="1.0" encoding="utf-8"?>
<!-- Generator: Adobe Illustrator 19.0.0, SVG Export Plug-In . SVG Version: 6.00 Build 0)  -->
<svg version="1.1" id="图层_1" xmlns="http://www.w3.org/2000/svg" xmlns:xlink="http://www.w3.org/1999/xlink" x="0px" y="0px"
	 viewBox="0 0 1024 1024" style="enable-background:new 0 0 1024 1024;" xml:space="preserve">
<style type="text/css">
	.st0{fill:#4F6AAF;}
</style>
<g id="XMLID_1098_">
	<g id="XMLID_1099_">
		<path id="XMLID_1121_" class="st0" d="M735,942.9c-13.9,0-27.4-3.4-40.2-10l-163.3-85.9c-12.7-6.6-27.8-6.6-40.4,0l-163.3,85.9
			c-36,18.5-80,9.9-106.3-21c-16.4-19.3-23.3-44.9-18.7-69.9L234,660.3c2.4-14.1-2.3-28.5-12.6-38.5L89.3,493
			c-23.6-22.9-32-57.2-21.8-88.4c10-31.3,37-54,69.5-58.6l182.6-26.5c14.1-2.1,26.4-11,32.7-23.8L434,130.2
			c14.7-29.6,44.2-48,77.3-48c33.1,0,62.6,18.4,77.3,48l81.7,165.4c6.3,12.8,18.5,21.7,32.7,23.8L885.6,346
			c32.5,4.6,59.5,27.4,69.5,58.6c10.2,31.2,1.8,65.5-21.8,88.4L801.3,621.8c-10.3,10-15,24.4-12.6,38.5l31.2,181.8
			c4.4,25.5-2.2,50.3-18.8,69.9C784.7,931.6,760.5,942.9,735,942.9L735,942.9z M511.3,799.4c14,0,27.9,3.5,40,9.9l163.3,85.9
			c18.2,9.4,40.5,4.9,53.7-10.7c8.2-9.7,11.6-22.6,9.3-35.1l-31.2-181.9c-4.8-27.9,4.5-56.5,24.8-76.2l132.1-128.8
			c12.1-11.4,16.4-28.8,11.1-44.6c-5-15.8-18.6-27.4-35.1-29.6l-182.7-26.5c-28-4.1-52.3-21.7-64.8-47.1l-81.7-165.5
			c-7.5-15.2-22.1-24.2-39-24.2c-16.9,0-31.5,9-39,24.2l-81.7,165.4c-12.6,25.4-36.8,43.1-64.9,47.2l-182.6,26.6
			c-16.4,2.2-30.1,13.7-35.1,29.5c-5.3,15.7-1.1,33.1,11,44.5l132.1,128.9c20.3,19.8,29.6,48.3,24.8,76.2l-31.2,181.9
			c-2.2,12.9,1.1,25.4,9.3,35.1c13.2,15.7,35.5,20.1,53.8,10.7l163.3-85.9C483.6,802.8,497.3,799.4,511.3,799.4L511.3,799.4z
			 M511.3,799.4"/>
	</g>
</g>
</svg>
