<?xml version="1.0" encoding="utf-8"?>
<!-- Generator: Adobe Illustrator 19.0.0, SVG Export Plug-In . SVG Version: 6.00 Build 0)  -->
<svg version="1.1" id="图层_1" xmlns="http://www.w3.org/2000/svg" xmlns:xlink="http://www.w3.org/1999/xlink" x="0px" y="0px"
	 viewBox="0 0 1024 1024" style="enable-background:new 0 0 1024 1024;" xml:space="preserve">
<style type="text/css">
	.st0{fill:#4F6AAF;}
</style>
<g id="XMLID_1629_">
	<g id="XMLID_1630_">
		<path id="XMLID_1631_" class="st0" d="M862.8,648.8c13.4-14.5,35.1-14.6,48.7,0.1c13.5,14.6,13.3,38.3,0.1,52.7l-215.4,233
			c-0.3,0.3-20,23.6-35.8,23.6c-20.6,0-37.3-16.7-37.3-37.3V100.3c0-20.6,16.6-37.3,37.3-37.3c20.6,0,37.3,16.7,37.3,37.3v652.5
			L862.8,648.8z M324.8,271.1l-165.1,104c-13.4,14.5-35.1,14.6-48.7-0.1c-13.5-14.6-13.3-38.3-0.1-52.7l215.4-233
			c0,0,0.1-0.1,0.1-0.1C331.1,74,345.2,63,362.1,63c20.6,0,37.3,16.7,37.3,37.3v820.6c0,20.6-16.6,37.3-37.3,37.3
			c-20.6,0-37.3-16.7-37.3-37.3V271.1z M324.8,196.5"/>
	</g>
</g>
</svg>
