<?xml version="1.0" encoding="utf-8"?>
<!-- Generator: Adobe Illustrator 19.0.0, SVG Export Plug-In . SVG Version: 6.00 Build 0)  -->
<svg version="1.1" id="图层_1" xmlns="http://www.w3.org/2000/svg" xmlns:xlink="http://www.w3.org/1999/xlink" x="0px" y="0px"
	 viewBox="0 0 1024 1024" style="enable-background:new 0 0 1024 1024;" xml:space="preserve">
<style type="text/css">
	.st0{fill:#4F6AAF;}
</style>
<g id="XMLID_1199_">
	<g id="XMLID_1200_">
		<path id="XMLID_1204_" class="st0" d="M783.8,943.7H208.1c-80.6,0-143.9-63.3-143.9-143.9V224.1c0-80.6,63.3-143.9,143.9-143.9
			h443.2c17.3,0,34.5,11.5,34.5,28.8c0,17.3-11.5,28.8-28.8,28.8h-449c-46.1,0-80.6,40.3-80.6,86.3v575.6
			c0,46.1,40.3,86.3,86.3,86.3h575.6c46,0,86.3-40.3,86.3-86.3V408.3c0-17.3,11.5-28.8,28.8-28.8c17.3,0,28.8,11.5,28.8,28.8v391.4
			C927.7,880.4,864.4,943.7,783.8,943.7L783.8,943.7z M783.8,943.7"/>
		<path id="XMLID_1201_" class="st0" d="M300.2,742.2c-5.8,0-17.3-5.8-23-11.5c-11.5-11.5-11.5-28.8,0-40.3l633.2-575.6
			c11.5-11.5,28.8-11.5,40.3,0c11.5,11.5,11.5,28.8,0,40.3L317.5,730.7C311.7,742.2,306,742.2,300.2,742.2L300.2,742.2z
			 M300.2,742.2"/>
	</g>
</g>
</svg>
