<?xml version="1.0" standalone="no"?><!DOCTYPE svg PUBLIC "-//W3C//DTD SVG 1.1//EN" "http://www.w3.org/Graphics/SVG/1.1/DTD/svg11.dtd"><svg t="1542607013430" class="icon" style="" viewBox="0 0 1024 1024" version="1.1" xmlns="http://www.w3.org/2000/svg" p-id="6952" xmlns:xlink="http://www.w3.org/1999/xlink" width="15" height="15"><defs><style type="text/css"></style></defs><path d="M896 1024H128a128 128 0 0 1-128-128V128a128 128 0 0 1 128-128h768a128 128 0 0 1 128 128v768a128 128 0 0 1-128 128z m85.333333-896a85.333333 85.333333 0 0 0-85.333333-85.333333H128a85.333333 85.333333 0 0 0-85.333333 85.333333v768a85.333333 85.333333 0 0 0 85.333333 85.333333h768a85.333333 85.333333 0 0 0 85.333333-85.333333V128z" fill="#CCCCCC" p-id="6953"></path></svg>