<?xml version="1.0" encoding="utf-8"?>
<!-- Generator: Adobe Illustrator 19.0.0, SVG Export Plug-In . SVG Version: 6.00 Build 0)  -->
<svg version="1.1" id="图层_1" xmlns="http://www.w3.org/2000/svg" xmlns:xlink="http://www.w3.org/1999/xlink" x="0px" y="0px"
	 viewBox="0 0 1024 1024" style="enable-background:new 0 0 1024 1024;" xml:space="preserve">
<style type="text/css">
	.st0{fill:#B9B9B9;}
</style>
<path class="st0" d="M582.1,565.3c-2.1,0-23.5-10.7-10.7-49.1c32-34.2,57.7-87.6,57.7-141c0-81.2-53.4-123.9-117.5-123.9
	c-64.1,0-117.5,42.7-117.5,123.9c0,53.4,25.6,106.8,57.7,141c12.8,34.2-10.7,47-15,47c-66.2,23.5-143.2,68.4-143.2,111.1v17.1
	c-2.1,59.8,111.1,74.8,217.9,74.8c104.7,0,217.9-12.8,217.9-72.6v-17.1C729.5,631.5,650.5,588.8,582.1,565.3L582.1,565.3z
	 M582.1,565.3 M511.6,959.3c-60.4,0-119.1-11.8-174.3-35.2c-53.3-22.6-101.2-54.8-142.3-96c-41.1-41.1-73.4-89-96-142.3
	C75.6,630.7,63.8,572,63.8,511.6c0-60.4,11.8-119.1,35.2-174.3c22.6-53.3,54.8-101.2,96-142.3c41.1-41.1,89-73.4,142.3-96
	c55.2-23.4,113.9-35.2,174.3-35.2c60.4,0,119.1,11.8,174.3,35.2c53.3,22.6,101.2,54.8,142.3,96c41.1,41.1,73.4,89,96,142.3
	c23.4,55.2,35.2,113.9,35.2,174.3c0,60.4-11.8,119.1-35.2,174.3c-22.6,53.3-54.8,101.2-96,142.3c-41.1,41.1-89,73.4-142.3,96
	C630.6,947.5,572,959.3,511.6,959.3z M511.6,99.9c-227,0-411.7,184.7-411.7,411.7s184.7,411.7,411.7,411.7s411.7-184.7,411.7-411.7
	S738.6,99.9,511.6,99.9z"/>
</svg>
