<?xml version="1.0" encoding="utf-8"?>
<!-- Generator: Adobe Illustrator 19.0.0, SVG Export Plug-In . SVG Version: 6.00 Build 0)  -->
<svg version="1.1" id="图层_1" xmlns="http://www.w3.org/2000/svg" xmlns:xlink="http://www.w3.org/1999/xlink" x="0px" y="0px"
	 viewBox="0 0 1024 1024" style="enable-background:new 0 0 1024 1024;" xml:space="preserve">
<style type="text/css">
	.st0{fill:#cacaca;}
</style>
<g>
	<g>
		<path class="st0" d="M425.8,763.8c-89.5,0-179.1-34.1-247.3-102.2c-136.3-136.3-136.3-358.2,0-494.5
			c136.4-136.3,358.1-136.3,494.5,0l0,0c136.2,136.3,136.2,358.2,0,494.5C604.9,729.7,515.4,763.8,425.8,763.8z M425.8,81.4
			c-85.3,0-170.6,32.5-235.6,97.4C60.4,308.7,60.4,520,190.3,649.9c129.9,129.9,341.3,129.8,471,0c129.8-129.9,129.8-341.2,0-471.1
			C596.4,113.9,511.2,81.4,425.8,81.4z"/>
	</g>
	<g>
		<polygon class="st0" points="938.5,956.6 670.3,688.4 682,676.7 950.2,944.9 		"/>
	</g>
</g>
</svg>
